<svg width="163" height="46" viewBox="0 0 163 46" fill="none" xmlns="http://www.w3.org/2000/svg">
<path d="M64.5256 23H60.571L66.5966 5.54545H71.3523L77.3693 23H73.4148L69.0426 9.53409H68.9062L64.5256 23ZM64.2784 16.1392H73.6193V19.0199H64.2784V16.1392ZM79.402 27.9091V9.90909H82.9815V12.108H83.1435C83.3026 11.7557 83.5327 11.3977 83.8338 11.0341C84.1406 10.6648 84.5384 10.358 85.027 10.1136C85.5213 9.86364 86.1349 9.73864 86.8679 9.73864C87.8224 9.73864 88.7031 9.98864 89.5099 10.4886C90.3168 10.983 90.9616 11.7301 91.4446 12.7301C91.9276 13.7244 92.169 14.9716 92.169 16.4716C92.169 17.9318 91.9332 19.1648 91.4616 20.1705C90.9957 21.1705 90.3594 21.929 89.5526 22.446C88.7514 22.9574 87.8537 23.2131 86.8594 23.2131C86.1548 23.2131 85.5554 23.0966 85.0611 22.8636C84.5724 22.6307 84.1719 22.3381 83.8594 21.9858C83.5469 21.6278 83.3082 21.267 83.1435 20.9034H83.0327V27.9091H79.402ZM82.956 16.4545C82.956 17.233 83.0639 17.9119 83.2798 18.4915C83.4957 19.071 83.8082 19.5227 84.2173 19.8466C84.6264 20.1648 85.1236 20.3239 85.7088 20.3239C86.2997 20.3239 86.7997 20.1619 87.2088 19.8381C87.6179 19.5085 87.9276 19.054 88.1378 18.4744C88.3537 17.8892 88.4616 17.2159 88.4616 16.4545C88.4616 15.6989 88.3565 15.0341 88.1463 14.4602C87.9361 13.8864 87.6264 13.4375 87.2173 13.1136C86.8082 12.7898 86.3054 12.6278 85.7088 12.6278C85.1179 12.6278 84.6179 12.7841 84.2088 13.0966C83.8054 13.4091 83.4957 13.8523 83.2798 14.4261C83.0639 15 82.956 15.6761 82.956 16.4545ZM100.504 23.2557C99.1804 23.2557 98.0355 22.9744 97.0696 22.4119C96.1094 21.8437 95.3679 21.054 94.8452 20.0426C94.3224 19.0256 94.0611 17.8466 94.0611 16.5057C94.0611 15.1534 94.3224 13.9716 94.8452 12.9602C95.3679 11.9432 96.1094 11.1534 97.0696 10.5909C98.0355 10.0227 99.1804 9.73864 100.504 9.73864C101.828 9.73864 102.97 10.0227 103.93 10.5909C104.896 11.1534 105.641 11.9432 106.163 12.9602C106.686 13.9716 106.947 15.1534 106.947 16.5057C106.947 17.8466 106.686 19.0256 106.163 20.0426C105.641 21.054 104.896 21.8437 103.93 22.4119C102.97 22.9744 101.828 23.2557 100.504 23.2557ZM100.521 20.4432C101.124 20.4432 101.626 20.2727 102.03 19.9318C102.433 19.5852 102.737 19.1136 102.942 18.517C103.152 17.9205 103.257 17.2415 103.257 16.4801C103.257 15.7188 103.152 15.0398 102.942 14.4432C102.737 13.8466 102.433 13.375 102.03 13.0284C101.626 12.6818 101.124 12.5085 100.521 12.5085C99.9134 12.5085 99.402 12.6818 98.9872 13.0284C98.5781 13.375 98.2685 13.8466 98.0582 14.4432C97.8537 15.0398 97.7514 15.7188 97.7514 16.4801C97.7514 17.2415 97.8537 17.9205 98.0582 18.517C98.2685 19.1136 98.5781 19.5852 98.9872 19.9318C99.402 20.2727 99.9134 20.4432 100.521 20.4432ZM112.939 5.54545V23H109.308V5.54545H112.939ZM119.478 5.54545V23H115.847V5.54545H119.478ZM128.301 23.2557C126.977 23.2557 125.832 22.9744 124.866 22.4119C123.906 21.8437 123.165 21.054 122.642 20.0426C122.119 19.0256 121.858 17.8466 121.858 16.5057C121.858 15.1534 122.119 13.9716 122.642 12.9602C123.165 11.9432 123.906 11.1534 124.866 10.5909C125.832 10.0227 126.977 9.73864 128.301 9.73864C129.625 9.73864 130.767 10.0227 131.727 10.5909C132.693 11.1534 133.438 11.9432 133.96 12.9602C134.483 13.9716 134.744 15.1534 134.744 16.5057C134.744 17.8466 134.483 19.0256 133.96 20.0426C133.438 21.054 132.693 21.8437 131.727 22.4119C130.767 22.9744 129.625 23.2557 128.301 23.2557ZM128.318 20.4432C128.92 20.4432 129.423 20.2727 129.827 19.9318C130.23 19.5852 130.534 19.1136 130.739 18.517C130.949 17.9205 131.054 17.2415 131.054 16.4801C131.054 15.7188 130.949 15.0398 130.739 14.4432C130.534 13.8466 130.23 13.375 129.827 13.0284C129.423 12.6818 128.92 12.5085 128.318 12.5085C127.71 12.5085 127.199 12.6818 126.784 13.0284C126.375 13.375 126.065 13.8466 125.855 14.4432C125.651 15.0398 125.548 15.7188 125.548 16.4801C125.548 17.2415 125.651 17.9205 125.855 18.517C126.065 19.1136 126.375 19.5852 126.784 19.9318C127.199 20.2727 127.71 20.4432 128.318 20.4432ZM147.997 13.642L144.673 13.8466C144.616 13.5625 144.494 13.3068 144.307 13.0795C144.119 12.8466 143.872 12.6619 143.565 12.5256C143.264 12.3835 142.903 12.3125 142.483 12.3125C141.92 12.3125 141.446 12.4318 141.06 12.6705C140.673 12.9034 140.48 13.2159 140.48 13.608C140.48 13.9205 140.605 14.1847 140.855 14.4006C141.105 14.6165 141.534 14.7898 142.142 14.9205L144.511 15.3977C145.784 15.6591 146.733 16.0795 147.358 16.6591C147.983 17.2386 148.295 18 148.295 18.9432C148.295 19.8011 148.043 20.554 147.537 21.2017C147.037 21.8494 146.349 22.3551 145.474 22.7188C144.605 23.0767 143.602 23.2557 142.466 23.2557C140.733 23.2557 139.352 22.8949 138.324 22.1733C137.301 21.446 136.702 20.4574 136.526 19.2074L140.097 19.0199C140.205 19.5483 140.466 19.9517 140.881 20.2301C141.295 20.5028 141.827 20.6392 142.474 20.6392C143.111 20.6392 143.622 20.517 144.009 20.2727C144.401 20.0227 144.599 19.7017 144.605 19.3097C144.599 18.9801 144.46 18.7102 144.188 18.5C143.915 18.2841 143.494 18.1193 142.926 18.0057L140.659 17.554C139.381 17.2983 138.429 16.8551 137.804 16.2244C137.185 15.5937 136.875 14.7898 136.875 13.8125C136.875 12.9716 137.102 12.2472 137.557 11.6392C138.017 11.0312 138.662 10.5625 139.491 10.233C140.327 9.90341 141.304 9.73864 142.423 9.73864C144.077 9.73864 145.378 10.0881 146.327 10.7869C147.281 11.4858 147.838 12.4375 147.997 13.642Z" fill="white"/>
<path d="M90.8217 29.5455H93.2869L95.8906 35.8977H96.0014L98.6051 29.5455H101.07V39H99.1314V32.8462H99.0529L96.6062 38.9538H95.2859L92.8391 32.8232H92.7607V39H90.8217V29.5455ZM105.912 39.1385C105.182 39.1385 104.555 38.9908 104.028 38.6953C103.505 38.3968 103.102 37.9751 102.819 37.4304C102.536 36.8826 102.394 36.2347 102.394 35.4869C102.394 34.7575 102.536 34.1173 102.819 33.5664C103.102 33.0155 103.501 32.5862 104.014 32.2784C104.532 31.9706 105.138 31.8168 105.833 31.8168C106.301 31.8168 106.737 31.8922 107.14 32.043C107.546 32.1907 107.9 32.4138 108.202 32.7124C108.506 33.0109 108.743 33.3864 108.913 33.8388C109.082 34.2881 109.166 34.8144 109.166 35.4176V35.9577H103.179V34.739H107.315C107.315 34.4558 107.254 34.205 107.131 33.9865C107.007 33.768 106.837 33.5972 106.618 33.4741C106.403 33.3479 106.152 33.2848 105.866 33.2848C105.567 33.2848 105.302 33.354 105.072 33.4925C104.844 33.628 104.665 33.8111 104.536 34.0419C104.407 34.2696 104.341 34.5236 104.338 34.8036V35.9624C104.338 36.3132 104.402 36.6164 104.532 36.8718C104.664 37.1272 104.85 37.3242 105.09 37.4627C105.33 37.6012 105.615 37.6705 105.944 37.6705C106.163 37.6705 106.363 37.6397 106.544 37.5781C106.726 37.5166 106.881 37.4242 107.011 37.3011C107.14 37.178 107.238 37.0272 107.306 36.8487L109.125 36.9688C109.033 37.4058 108.843 37.7874 108.557 38.1136C108.274 38.4368 107.908 38.6892 107.458 38.8707C107.012 39.0492 106.497 39.1385 105.912 39.1385ZM113.063 39.1154C112.524 39.1154 112.036 38.9769 111.599 38.6999C111.165 38.4199 110.821 38.009 110.565 37.4673C110.313 36.9226 110.187 36.2547 110.187 35.4638C110.187 34.6513 110.318 33.9757 110.579 33.4371C110.841 32.8955 111.188 32.4908 111.622 32.223C112.059 31.9522 112.538 31.8168 113.058 31.8168C113.455 31.8168 113.786 31.8845 114.051 32.0199C114.318 32.1522 114.534 32.3184 114.697 32.5185C114.863 32.7154 114.989 32.9093 115.076 33.1001H115.136V29.5455H117.098V39H115.159V37.8643H115.076C114.983 38.0613 114.852 38.2567 114.683 38.4506C114.517 38.6415 114.3 38.8 114.032 38.9261C113.768 39.0523 113.444 39.1154 113.063 39.1154ZM113.686 37.5504C114.003 37.5504 114.271 37.4643 114.489 37.2919C114.711 37.1165 114.88 36.8718 114.997 36.5579C115.117 36.244 115.177 35.8762 115.177 35.4545C115.177 35.0329 115.119 34.6667 115.002 34.3558C114.885 34.045 114.715 33.8049 114.494 33.6357C114.272 33.4664 114.003 33.3817 113.686 33.3817C113.363 33.3817 113.09 33.4695 112.869 33.6449C112.647 33.8203 112.48 34.0634 112.366 34.3743C112.252 34.6851 112.195 35.0452 112.195 35.4545C112.195 35.867 112.252 36.2317 112.366 36.5487C112.483 36.8626 112.65 37.1088 112.869 37.2873C113.09 37.4627 113.363 37.5504 113.686 37.5504ZM118.714 39V31.9091H120.681V39H118.714ZM119.702 30.995C119.41 30.995 119.159 30.8981 118.95 30.7042C118.744 30.5072 118.641 30.2718 118.641 29.9979C118.641 29.727 118.744 29.4947 118.95 29.3008C119.159 29.1038 119.41 29.0053 119.702 29.0053C119.995 29.0053 120.244 29.1038 120.45 29.3008C120.66 29.4947 120.764 29.727 120.764 29.9979C120.764 30.2718 120.66 30.5072 120.45 30.7042C120.244 30.8981 119.995 30.995 119.702 30.995ZM125.46 39.1385C124.734 39.1385 124.109 38.9846 123.586 38.6768C123.066 38.366 122.666 37.9351 122.386 37.3842C122.109 36.8333 121.97 36.1993 121.97 35.4822C121.97 34.7559 122.11 34.1188 122.39 33.571C122.674 33.0201 123.075 32.5908 123.595 32.283C124.115 31.9722 124.734 31.8168 125.451 31.8168C126.07 31.8168 126.611 31.9291 127.076 32.1538C127.541 32.3784 127.909 32.6939 128.179 33.1001C128.45 33.5064 128.6 33.9834 128.627 34.5312H126.771C126.719 34.1773 126.581 33.8926 126.356 33.6772C126.134 33.4587 125.843 33.3494 125.483 33.3494C125.179 33.3494 124.912 33.4325 124.685 33.5987C124.46 33.7618 124.285 34.0004 124.158 34.3143C124.032 34.6282 123.969 35.0083 123.969 35.4545C123.969 35.907 124.031 36.2917 124.154 36.6087C124.28 36.9257 124.457 37.1673 124.685 37.3335C124.912 37.4996 125.179 37.5827 125.483 37.5827C125.708 37.5827 125.91 37.5366 126.088 37.4442C126.27 37.3519 126.419 37.218 126.536 37.0426C126.656 36.8641 126.734 36.6502 126.771 36.4009H128.627C128.596 36.9426 128.449 37.4196 128.184 37.832C127.922 38.2414 127.561 38.5614 127.099 38.7923C126.638 39.0231 126.091 39.1385 125.46 39.1385ZM129.886 39V31.9091H131.853V39H129.886ZM130.874 30.995C130.582 30.995 130.331 30.8981 130.122 30.7042C129.916 30.5072 129.812 30.2718 129.812 29.9979C129.812 29.727 129.916 29.4947 130.122 29.3008C130.331 29.1038 130.582 29.0053 130.874 29.0053C131.167 29.0053 131.416 29.1038 131.622 29.3008C131.831 29.4947 131.936 29.727 131.936 29.9979C131.936 30.2718 131.831 30.5072 131.622 30.7042C131.416 30.8981 131.167 30.995 130.874 30.995ZM135.395 34.9006V39H133.428V31.9091H135.303V33.1602H135.386C135.543 32.7478 135.806 32.4215 136.175 32.1815C136.544 31.9383 136.992 31.8168 137.519 31.8168C138.011 31.8168 138.44 31.9245 138.807 32.1399C139.173 32.3554 139.457 32.6631 139.661 33.0632C139.864 33.4602 139.965 33.9342 139.965 34.4851V39H137.999V34.8359C138.002 34.402 137.891 34.0634 137.666 33.8203C137.442 33.5741 137.132 33.451 136.738 33.451C136.474 33.451 136.24 33.5079 136.037 33.6218C135.837 33.7357 135.68 33.9019 135.566 34.1204C135.455 34.3358 135.398 34.5959 135.395 34.9006ZM144.747 39.1385C144.017 39.1385 143.39 38.9908 142.863 38.6953C142.34 38.3968 141.937 37.9751 141.654 37.4304C141.371 36.8826 141.229 36.2347 141.229 35.4869C141.229 34.7575 141.371 34.1173 141.654 33.5664C141.937 33.0155 142.335 32.5862 142.849 32.2784C143.366 31.9706 143.973 31.8168 144.668 31.8168C145.136 31.8168 145.572 31.8922 145.975 32.043C146.381 32.1907 146.735 32.4138 147.037 32.7124C147.341 33.0109 147.578 33.3864 147.748 33.8388C147.917 34.2881 148.001 34.8144 148.001 35.4176V35.9577H142.014V34.739H146.15C146.15 34.4558 146.089 34.205 145.966 33.9865C145.842 33.768 145.672 33.5972 145.453 33.4741C145.238 33.3479 144.987 33.2848 144.701 33.2848C144.402 33.2848 144.137 33.354 143.907 33.4925C143.679 33.628 143.5 33.8111 143.371 34.0419C143.242 34.2696 143.176 34.5236 143.173 34.8036V35.9624C143.173 36.3132 143.237 36.6164 143.366 36.8718C143.499 37.1272 143.685 37.3242 143.925 37.4627C144.165 37.6012 144.45 37.6705 144.779 37.6705C144.998 37.6705 145.198 37.6397 145.379 37.5781C145.561 37.5166 145.716 37.4242 145.846 37.3011C145.975 37.178 146.073 37.0272 146.141 36.8487L147.96 36.9688C147.868 37.4058 147.678 37.7874 147.392 38.1136C147.109 38.4368 146.743 38.6892 146.293 38.8707C145.847 39.0492 145.332 39.1385 144.747 39.1385Z" fill="white"/>
<path d="M15.3381 0C17.3832 0 19.33 0.432614 21.1784 1.29784C23.0269 2.16307 24.6197 3.38226 25.9569 4.9554C27.294 3.38226 28.8868 2.16307 30.7353 1.29784C32.5837 0.432614 34.5305 0 36.5756 0C40.2725 0 43.3598 1.23885 45.8375 3.71655C48.3152 6.19425 49.554 9.28155 49.554 12.9784C49.554 13.1751 49.5442 13.3717 49.5245 13.5684C49.5049 13.765 49.495 13.9616 49.495 14.1583H44.7756C44.8149 13.9616 44.8346 13.765 44.8346 13.5684V12.9784C44.8346 10.6187 44.048 8.65229 42.4749 7.07915C40.9017 5.506 38.9353 4.71943 36.5756 4.71943C34.7271 4.71943 33.0163 5.24053 31.4432 6.28274C29.8701 7.32495 28.7885 8.65229 28.1986 10.2648H23.7151C23.1252 8.65229 22.0437 7.32495 20.4705 6.28274C18.8974 5.24053 17.1866 4.71943 15.3381 4.71943C12.9784 4.71943 11.012 5.506 9.43886 7.07915C7.86572 8.65229 7.07914 10.6187 7.07914 12.9784V13.5684C7.07914 13.765 7.09881 13.9616 7.13814 14.1583H2.41871C2.41871 13.9616 2.40888 13.765 2.38921 13.5684C2.36955 13.3717 2.35971 13.1751 2.35971 12.9784C2.35971 9.28155 3.59856 6.19425 6.07627 3.71655C8.55397 1.23885 11.6413 0 15.3381 0ZM10.1468 28.3166H16.754C18.0125 29.5358 19.389 30.8533 20.8835 32.2691C22.378 33.6849 24.0691 35.2384 25.9569 36.9295C27.8446 35.2384 29.5358 33.6849 31.0303 32.2691C32.5247 30.8533 33.9012 29.5358 35.1598 28.3166H41.8259C40.3315 29.9684 38.5617 31.7578 36.5166 33.6849C34.4715 35.612 32.0921 37.7948 29.3784 40.2331L25.9569 43.3008L22.5353 40.2331C19.8216 37.7948 17.4521 35.612 15.4266 33.6849C13.4012 31.7578 11.6413 29.9684 10.1468 28.3166ZM23.7151 30.6763C24.2264 30.6763 24.6689 30.5288 25.0425 30.2339C25.4161 29.9389 25.6816 29.5554 25.8389 29.0835L29.0245 19.4677L31.0892 22.5353C31.2859 22.8499 31.5612 23.1055 31.9151 23.3022C32.2691 23.4988 32.6427 23.5972 33.036 23.5972H51.9137V18.8777H34.3928L30.3223 12.8604C30.0864 12.5065 29.7816 12.241 29.4079 12.064C29.0343 11.8871 28.6312 11.7986 28.1986 11.7986C27.6873 11.7986 27.2449 11.9461 26.8713 12.241C26.4976 12.536 26.2322 12.9194 26.0748 13.3914L22.8892 22.9482L20.8835 19.9396C20.6868 19.625 20.4115 19.3693 20.0576 19.1727C19.7036 18.976 19.33 18.8777 18.9367 18.8777H0V23.5972H17.5209L21.5914 29.6144C21.8274 29.9684 22.1322 30.2339 22.5058 30.4108C22.8794 30.5878 23.2825 30.6763 23.7151 30.6763Z" fill="white"/>
</svg>
